<svg xmlns="http://www.w3.org/2000/svg" viewBox="0 0 512 512"><path fill="#535353" d="M411 293H262c-16 0-22 11-12 24l27 40c-67 57-138 70-197 32 43 75 146 101 250 40l30 40c8 13 22 11 27-5l47-149c1-8-7-22-23-22zm-190 54c-11-16-13-35-5-51 13-27 27-30 54-30h28V130c0-16-12-28-28-28H82c-16 0-28 12-28 28v188c0 16 12 28 28 28h139zm-32-189h54v28h-54zm0 55h54v27h-54zm-82-55h55v28h-55zm0 55h55v27h-55zM432-32H243c-16 0-27 11-27 27v82h54c31 0 55 24 55 54v136h109c16 0 27-11 27-27V-3c-2-15-13-29-29-29zM325 50h-55V22h55zm27-28h54v28h-54zm53 136h-55v-27h55zm0-54h-55V77h55z"/></svg>