<svg xmlns="http://www.w3.org/2000/svg" viewBox="0 -32 512 512"><path fill="#bed700" d="M256-32C115-32 0 83 0 224s115 256 256 256 256-115 256-256S397-32 256-32zm29 382c0 7-2 13-3 18-2 5-5 8-8 11-4 3-8 5-13 7-5 1-10 1-15 1h-1c-5 0-10 0-15-1-4-2-9-4-12-7-4-3-7-6-8-11-2-5-4-10-4-18v-3c0-14 4-24 12-29 8-4 16-8 27-8h1c5 0 10 0 15 2s9 3 13 6c3 4 6 7 8 12 1 4 3 11 3 17zm72-192c0 18-3 31-10 44-6 11-16 20-32 30l-13 8c-11 6-19 13-24 18-4 4-6 11-6 20v7c0 5-3 8-11 8h-37c-6 0-11-3-11-10v-11c0-10 0-16 1-22 0-7 2-12 5-16 2-5 7-8 10-13 5-3 9-8 17-13l12-6c9-7 17-12 20-16 4-5 5-12 5-18v-2c0-16-9-25-30-25h-2c-8 0-17 1-27 3-10 3-19 5-29 8-3 2-6 2-9 0-2-2-5-3-7-8l-8-27c0-2-1-3-1-5v-5c0-5 3-9 9-11 5-2 10-5 16-6 7-2 13-4 21-5 6-2 14-3 21-3 8-2 14-2 21-2h3c30 0 53 6 69 18s24 30 24 54z"/></svg>