<svg xmlns="http://www.w3.org/2000/svg" viewBox="0 0 512 512"><path fill="#0080ff" d="M346 397l-4-3c-6-4-48-23-62-55-6-8-6-22-8-37 0-8-3-19-6-25-4 3-7 6-8 11-15 18-18 40-26 54-11 18-14 32-29 29-14-3-19-29-19-62 3-43-6-77-14-91 0 3-4 6-7 11-22 69-48 113-48 113l-32 84 3-92c4-36 8-73 0-108-19 62-40 128-62 124-8 0-18-22-22-40l17 15c15-11 48-114 69-191 3-6 6-22 19-19 15 3 15 29 8 168 7-11 15-51 19-65 8-26 20-37 37-34 32 6 32 88 29 128 6-8 22-32 32-43 11-15 26-29 40-23 18 7 22 29 26 55 3 11 3 22 6 32 8 17 32 32 45 40l160-29 6 29z"/></svg>